<?xml version="1.0" standalone="no"?>
<!DOCTYPE svg PUBLIC "-//W3C//DTD SVG 20010904//EN"
 "http://www.w3.org/TR/2001/REC-SVG-20010904/DTD/svg10.dtd">
<svg version="1.0" xmlns="http://www.w3.org/2000/svg"
 width="2908.000000pt" height="2888.000000pt" viewBox="0 0 2908.000000 2888.000000"
 preserveAspectRatio="xMidYMid meet">

<g transform="translate(0.000000,2888.000000) scale(0.100000,-0.100000)"
fill="#000000" stroke="none">
<path d="M25225 25205 c-262 -68 -491 -177 -840 -400 -88 -56 -223 -140 -300
-187 -387 -236 -435 -262 -482 -256 -39 4 -35 29 7 43 39 13 33 17 -45 31 -22
4 -63 17 -90 29 -28 12 -74 30 -103 39 -28 10 -52 23 -52 30 0 8 19 21 43 30
56 22 166 92 174 111 7 19 -47 127 -83 169 l-26 29 -82 -42 c-105 -54 -176
-108 -200 -151 -10 -20 -29 -43 -41 -52 -27 -20 -18 -23 -480 152 -246 93
-393 150 -440 171 -27 12 -108 44 -180 70 -71 26 -173 64 -225 84 -111 44
-249 84 -268 78 -6 -3 -9 -10 -5 -16 4 -7 1 -7 -9 1 -9 7 -19 9 -22 4 -3 -5
-25 -9 -50 -10 -42 -2 -70 -15 -141 -65 -19 -14 -18 -15 13 -31 38 -19 228
-145 322 -213 36 -25 101 -71 145 -101 45 -30 80 -61 80 -70 0 -17 41 -50 214
-172 245 -174 386 -268 389 -260 8 22 29 6 67 -48 22 -31 47 -73 57 -92 9 -19
57 -86 107 -149 51 -63 90 -121 89 -130 -3 -13 -188 -131 -303 -192 -111 -59
-301 -193 -505 -357 -58 -47 -114 -89 -126 -94 -22 -10 -64 6 -364 135 -69 29
-168 69 -220 87 l-95 33 -64 -41 c-35 -23 -68 -42 -73 -42 -23 0 10 -38 207
-239 118 -120 215 -223 215 -227 0 -25 -95 -139 -209 -251 -13 -13 -21 -26
-18 -29 6 -7 161 22 280 51 37 9 74 14 81 12 8 -3 17 -21 21 -39 13 -63 163
-540 173 -550 5 -5 37 8 83 35 87 51 72 -3 119 442 18 177 37 315 44 321 6 6
34 19 61 29 203 72 426 184 719 360 126 75 232 133 236 128 4 -4 36 -73 71
-152 34 -79 79 -166 100 -195 40 -56 64 -123 46 -129 -21 -7 57 -665 88 -741
22 -53 75 -496 75 -626 l0 -80 38 23 c20 13 53 29 72 36 21 7 41 23 50 40 8
16 28 53 43 81 24 45 33 86 62 288 19 131 43 316 54 412 35 305 122 932 132
952 8 14 22 18 64 18 45 0 69 8 142 46 112 58 172 103 173 129 0 30 -44 116
-79 153 l-30 33 -43 -21 c-72 -35 -101 -52 -147 -87 -42 -31 -65 -36 -56 -10
2 7 16 75 29 152 14 77 28 151 32 165 7 25 7 25 -14 6 -12 -10 -24 -28 -28
-39 -5 -16 -8 -17 -15 -6 -29 46 28 96 231 209 320 177 788 466 981 605 244
177 429 388 429 491 0 19 -9 39 -23 52 -20 19 -34 22 -108 22 -55 -1 -115 -9
-174 -25z m-3630 -60 c23 -10 25 -13 10 -14 -11 0 -33 6 -50 14 -23 10 -25 13
-10 14 11 0 34 -6 50 -14z m347 -135 c18 -11 41 -20 50 -20 17 0 34 -17 25
-26 -7 -8 -117 46 -117 57 0 13 5 12 42 -11z m273 -110 c3 -5 2 -10 -4 -10 -5
0 -13 5 -16 10 -3 6 -2 10 4 10 5 0 13 -4 16 -10z m103 -30 c6 0 12 -4 12 -10
0 -15 -34 -12 -56 6 -18 15 -18 15 6 10 14 -3 31 -6 38 -6z m215 -91 c-9 -9
-53 -1 -53 10 0 4 14 6 31 3 17 -2 27 -8 22 -13z m287 -119 c13 -8 13 -10 -2
-10 -9 0 -20 5 -23 10 -8 13 5 13 25 0z m115 -40 c3 -5 -1 -10 -9 -10 -8 0
-18 5 -21 10 -3 6 1 10 9 10 8 0 18 -4 21 -10z m89 -26 c28 -11 18 -27 -11
-19 -37 9 -53 25 -26 25 12 0 28 -3 37 -6z m763 -1451 c-2 -16 -4 -3 -4 27 0
30 2 43 4 28 2 -16 2 -40 0 -55z m-10 -100 c-3 -10 -5 -4 -5 12 0 17 2 24 5
18 2 -7 2 -21 0 -30z m-10 -55 c-3 -7 -5 -2 -5 12 0 14 2 19 5 13 2 -7 2 -19
0 -25z m-10 -60 c-3 -7 -5 -2 -5 12 0 14 2 19 5 13 2 -7 2 -19 0 -25z"/>
<path d="M13270 22943 c-19 -2 -70 -11 -114 -20 -62 -14 -80 -22 -89 -40 -5
-12 -33 -34 -61 -48 -66 -34 -110 -58 -116 -67 -15 -19 -115 -79 -140 -85 -22
-4 -30 -11 -30 -26 0 -13 -24 -46 -57 -80 -63 -63 -62 -64 35 -38 51 14 518 6
627 -11 39 -6 93 -12 121 -12 45 -1 55 3 102 42 29 24 52 48 52 54 0 19 -95
98 -110 91 -23 -11 -94 -6 -142 10 -31 10 -71 12 -143 8 -99 -6 -100 -6 -120
-38 -24 -39 -45 -50 -45 -23 0 10 9 22 20 25 11 3 20 12 20 19 0 7 13 22 30
34 23 18 44 22 102 23 40 1 81 4 92 6 35 9 -6 23 -69 23 -75 0 -123 -22 -195
-89 -50 -46 -59 -51 -100 -50 -25 1 -58 -1 -75 -5 -16 -4 -36 -2 -44 3 -24 15
-5 38 37 45 29 4 49 16 69 40 15 18 54 48 86 66 31 18 62 40 67 50 13 24 84
47 189 61 107 14 124 19 91 29 -27 9 -35 9 -90 3z m80 -278 c-7 -8 -16 -15
-21 -15 -5 0 -9 7 -9 15 0 9 9 15 21 15 18 0 19 -2 9 -15z m-62 -7 c19 -19 14
-38 -12 -38 -26 0 -51 24 -41 40 8 14 38 13 53 -2z"/>
<path d="M13376 22894 c-15 -9 -62 -18 -105 -21 -86 -6 -181 -29 -181 -45 0
-6 8 -7 18 -3 9 3 81 15 159 25 152 20 226 38 217 51 -8 14 -77 9 -108 -7z"/>
<path d="M13005 22890 c-22 -4 -76 -13 -119 -20 -43 -6 -88 -16 -100 -20 -12
-5 -66 -18 -121 -30 -119 -26 -230 -54 -345 -87 -139 -40 -148 -43 -159 -57
-10 -11 132 13 254 45 22 5 72 16 112 24 40 7 77 16 83 20 6 4 35 10 63 15 29
4 75 17 102 28 28 12 94 31 148 44 55 12 106 28 115 35 10 7 15 12 12 12 -3
-1 -23 -5 -45 -9z"/>
<path d="M16750 22782 c0 -5 21 -15 46 -21 54 -14 107 -46 149 -91 40 -43 87
-65 170 -83 92 -19 113 -28 161 -68 22 -19 68 -47 102 -63 34 -16 62 -36 62
-43 0 -15 5 -15 -150 22 -151 37 -147 36 -164 19 -9 -8 -16 -20 -16 -25 0 -10
44 -30 58 -27 4 1 22 -2 40 -6 28 -7 33 -12 30 -34 -3 -27 -17 -32 -58 -21
-10 3 -16 -5 -18 -23 -2 -14 -10 -32 -18 -38 -23 -20 -16 -36 26 -55 26 -12
40 -25 40 -37 0 -25 -20 -23 -61 6 -187 134 -205 144 -312 171 -80 20 -109 17
-122 -12 -7 -17 -19 -23 -45 -25 -50 -2 -60 -2 -105 6 l-40 7 25 -21 c14 -12
51 -35 82 -51 64 -32 79 -61 60 -113 -10 -24 -8 -42 8 -98 20 -64 22 -68 55
-74 20 -3 38 -10 41 -15 3 -5 15 -9 27 -9 12 0 29 -4 36 -9 12 -8 11 -13 -10
-30 -13 -11 -36 -26 -52 -33 -15 -7 -26 -20 -25 -28 5 -24 78 -58 153 -71 38
-6 93 -18 120 -26 59 -18 195 -90 195 -104 0 -13 2 -14 -91 37 -94 51 -104 53
-242 59 -72 2 -97 0 -94 -8 6 -20 88 -78 119 -84 48 -10 46 -27 -3 -21 -46 6
-152 50 -182 76 -9 8 -19 13 -22 10 -11 -10 92 -111 135 -133 26 -13 71 -43
101 -68 53 -43 128 -87 149 -87 5 0 10 8 10 18 0 16 7 18 58 14 57 -4 135 -32
148 -53 3 -6 23 -18 43 -27 25 -11 31 -17 19 -19 -15 -4 -41 8 -128 57 -38 22
-95 26 -106 8 -8 -12 57 -73 89 -84 26 -8 58 -79 64 -140 l6 -54 -54 1 c-30 0
-63 4 -74 9 -17 6 -14 9 18 15 20 4 39 10 41 14 10 16 -34 115 -65 148 -19 19
-65 50 -103 69 -38 19 -113 65 -165 103 -53 38 -107 74 -120 81 -14 7 -53 37
-88 66 -62 53 -86 64 -98 44 -10 -16 -45 -12 -45 5 0 8 -13 21 -30 30 -17 9
-30 11 -30 5 0 -6 14 -29 30 -52 17 -22 30 -45 30 -51 0 -5 11 -22 25 -39 14
-16 25 -38 25 -49 0 -10 12 -29 27 -42 15 -12 48 -42 75 -66 36 -33 69 -50
140 -75 68 -23 94 -36 96 -50 5 -21 -5 -21 -133 9 -44 11 -124 18 -215 20
-108 1 -155 6 -184 19 -48 20 -62 20 -45 0 19 -23 64 -44 96 -44 29 -1 82 -42
103 -80 16 -30 10 -33 -42 -13 l-45 16 -83 -57 c-88 -60 -113 -64 -124 -21 -9
34 -31 31 -76 -7 -159 -137 -150 -127 -150 -168 0 -33 -4 -39 -28 -48 -31 -11
-68 1 -111 36 -28 22 -23 52 8 52 25 0 37 18 22 33 -17 17 -90 37 -134 37
l-38 0 19 -27 c10 -16 25 -44 32 -62 8 -19 26 -49 41 -65 14 -17 30 -42 34
-55 7 -24 7 -24 -52 -17 -52 6 -62 4 -84 -15 -13 -12 -39 -33 -56 -46 -40 -31
-41 -52 -7 -92 14 -17 22 -36 18 -42 -9 -15 -91 -5 -150 17 -50 19 -74 14 -74
-16 0 -20 5 -23 78 -50 38 -15 42 -37 7 -46 -31 -8 -65 -2 -130 23 -41 15 -54
26 -70 59 -11 23 -26 48 -32 56 -9 10 -9 18 -2 25 15 15 -9 50 -46 65 -52 21
-115 62 -115 75 0 17 10 16 29 -1 23 -21 153 -54 265 -67 l96 -12 57 30 c52
27 58 34 61 65 5 60 -48 108 -138 123 -25 4 -62 16 -82 26 -91 46 -153 63
-238 65 -116 2 -112 1 -105 23 3 10 -1 24 -10 31 -13 10 -19 10 -33 -3 -18
-17 -125 -28 -138 -15 -12 12 6 26 42 32 44 9 40 24 -12 53 -46 26 -54 28 -54
9 0 -7 -7 -19 -15 -26 -13 -11 -15 -7 -15 24 0 25 -5 36 -14 36 -19 0 -46 -28
-46 -47 0 -14 -4 -12 -23 5 -38 36 -57 24 -57 -36 0 -43 -18 -12 -22 37 l-3
44 -30 -24 c-16 -14 -43 -30 -60 -37 -16 -8 -65 -31 -107 -53 l-78 -39 0 25
c0 20 -5 25 -24 25 -26 0 -44 -16 -26 -22 16 -5 -11 -35 -37 -43 -17 -5 -23
-2 -23 9 0 9 -9 16 -20 16 -22 0 -28 -26 -7 -33 7 -2 -10 -27 -44 -61 -57 -57
-79 -68 -79 -41 0 8 5 15 11 15 8 0 39 58 39 75 0 9 -69 -23 -86 -39 -8 -9
-36 -25 -62 -37 -26 -12 -41 -23 -34 -26 7 -3 29 5 49 17 48 28 63 14 34 -33
-12 -20 -20 -40 -19 -45 2 -6 -26 -26 -62 -44 -58 -29 -65 -36 -62 -60 2 -19
-2 -28 -17 -33 -27 -8 -71 -62 -65 -79 4 -9 -2 -12 -18 -9 -16 3 -38 -8 -71
-34 -127 -102 -151 -117 -186 -116 -25 1 -40 -5 -49 -19 -15 -21 -23 -25 -160
-74 -55 -19 -101 -43 -112 -56 -26 -32 -88 -202 -95 -265 -6 -49 -6 -51 14
-46 15 4 21 1 21 -11 0 -10 -9 -16 -24 -16 -17 0 -27 -7 -32 -22 -5 -18 1 -29
36 -59 24 -21 57 -39 74 -42 40 -6 107 18 174 60 29 18 56 33 61 33 4 0 24 11
44 24 19 13 38 22 41 18 3 -3 6 -31 6 -62 0 -61 37 -216 63 -267 l17 -32 -55
-36 c-31 -19 -64 -35 -74 -35 -31 0 -52 -11 -44 -24 5 -6 13 -26 19 -43 10
-29 9 -33 -5 -33 -26 0 -52 -23 -43 -37 6 -10 15 -10 43 0 39 14 48 23 90 95
29 50 67 73 56 35 -2 -10 -6 -24 -8 -32 -5 -17 54 -35 87 -27 13 4 30 22 41
43 14 30 24 39 48 40 77 7 133 26 138 47 41 170 74 253 105 262 21 7 62 24 82
34 8 4 15 14 15 22 0 7 10 27 23 42 32 41 28 58 -23 94 -25 18 -48 39 -52 48
-16 42 45 201 84 220 13 6 31 18 41 27 10 9 44 28 77 43 33 14 75 41 93 60 28
29 33 40 28 67 -4 27 1 39 34 76 l40 44 76 -5 c59 -4 80 -10 96 -26 30 -29 17
-59 -48 -112 -30 -25 -75 -64 -99 -88 -24 -24 -54 -44 -66 -45 -26 -2 -62 -55
-53 -77 14 -33 16 -161 3 -176 -10 -12 -8 -18 10 -30 12 -9 26 -27 31 -40 5
-13 17 -24 27 -24 10 0 30 -7 46 -15 24 -12 38 -12 105 0 42 7 90 19 107 25
39 15 159 40 192 40 13 0 36 -9 50 -20 14 -11 41 -20 59 -20 47 0 42 -17 -8
-30 -24 -5 -66 -22 -94 -36 -44 -23 -58 -26 -95 -19 -77 14 -159 7 -216 -20
-38 -17 -53 -29 -53 -44 0 -36 19 -71 45 -83 22 -10 25 -18 25 -59 0 -39 -4
-51 -26 -68 -15 -12 -33 -21 -40 -21 -7 0 -33 20 -57 45 -25 25 -49 45 -55 45
-22 0 -69 -51 -94 -102 -24 -48 -26 -62 -22 -145 l3 -93 -41 0 c-32 0 -50 -8
-85 -36 l-44 -36 -49 30 -50 31 -62 -13 c-35 -8 -83 -23 -108 -34 -25 -11 -70
-26 -100 -33 -30 -7 -63 -20 -74 -28 -17 -15 -19 -14 -30 3 -6 11 -22 30 -34
42 -13 13 -21 28 -17 33 3 6 -2 11 -12 11 -29 0 -137 -30 -147 -41 -17 -16
-46 -10 -69 15 -12 13 -32 26 -43 30 -14 4 -24 18 -28 38 -14 69 -8 85 51 143
31 30 60 55 65 55 4 0 8 7 8 15 0 8 -7 15 -15 15 -24 0 -18 44 11 75 21 23 23
30 12 41 -15 15 -18 14 -138 -71 -36 -25 -71 -45 -77 -45 -8 0 -13 -13 -13
-33 0 -18 -5 -38 -12 -45 -9 -9 -9 -17 0 -34 9 -17 10 -41 4 -87 -5 -36 -7
-73 -4 -83 3 -13 -6 -29 -29 -48 -40 -34 -64 -37 -79 -10 -11 20 -11 20 -52
-1 -31 -16 -51 -19 -81 -15 -31 5 -50 1 -88 -19 -27 -14 -56 -25 -65 -25 -9 0
-23 -17 -32 -40 -9 -22 -24 -42 -33 -45 -26 -9 -69 -56 -69 -76 0 -13 -8 -17
-32 -17 -18 1 -51 -6 -73 -15 -22 -9 -60 -16 -85 -17 -44 0 -46 -2 -74 -51
-39 -70 -60 -89 -98 -89 -18 0 -53 -11 -77 -25 -59 -34 -96 -33 -129 5 -42 48
-62 36 -62 -38 -1 -57 -19 -74 -71 -66 -24 3 -56 14 -70 25 -23 15 -37 17 -90
11 -57 -6 -65 -10 -77 -35 -7 -15 -11 -36 -7 -46 3 -10 41 -40 85 -66 l80 -47
0 -60 c0 -52 4 -64 25 -84 21 -19 23 -27 15 -49 -6 -15 -10 -35 -10 -46 0 -11
-19 -59 -42 -107 -95 -197 -119 -218 -216 -184 -31 11 -88 23 -126 27 -39 3
-102 19 -145 35 -42 17 -84 30 -93 30 -10 0 -39 7 -65 16 -44 15 -53 15 -130
-1 -95 -20 -103 -28 -103 -102 0 -28 -7 -58 -16 -71 -8 -12 -24 -55 -35 -95
-23 -84 -71 -167 -144 -252 -63 -72 -73 -99 -50 -126 23 -25 15 -92 -20 -161
-14 -27 -25 -52 -25 -54 0 -14 78 -34 133 -34 54 0 68 -4 91 -25 21 -19 25
-30 20 -51 -6 -23 -1 -39 26 -94 12 -24 40 -24 65 0 35 33 93 40 248 33 l137
-6 38 40 c31 34 45 41 89 47 44 6 52 10 61 34 5 16 16 35 24 43 8 8 20 25 27
37 8 15 18 21 29 18 9 -3 24 -1 32 4 12 7 13 15 3 39 -21 57 5 104 121 214 69
65 132 97 193 97 10 0 32 9 48 20 17 11 37 20 45 20 8 0 30 13 48 28 28 23 33
35 38 89 4 33 9 65 13 70 3 4 27 23 54 40 l47 33 33 -20 c17 -11 42 -20 55
-20 13 0 40 -11 60 -25 50 -34 102 -33 162 4 26 16 69 37 95 45 25 9 63 27 83
41 48 32 71 31 131 -5 49 -31 81 -77 81 -119 0 -41 28 -87 118 -192 83 -97
109 -121 137 -124 51 -6 76 -20 93 -50 13 -21 31 -35 51 -40 22 -5 37 -18 53
-48 15 -27 31 -43 46 -45 27 -4 40 -28 58 -105 14 -57 13 -61 -11 -113 -14
-30 -31 -54 -38 -54 -7 0 -52 -3 -102 -7 -97 -7 -127 -7 -222 3 -54 5 -63 3
-72 -14 -8 -15 -7 -23 7 -34 32 -27 132 -89 166 -103 19 -8 52 -26 73 -41 l38
-25 18 22 c13 16 17 32 13 52 -4 21 2 43 21 78 27 51 54 63 71 33 8 -14 15
-12 49 20 23 20 43 49 46 65 5 22 13 31 37 36 27 6 30 11 30 42 0 23 -9 48
-25 69 -14 18 -25 36 -25 39 0 12 63 95 73 95 10 0 52 -31 99 -72 35 -32 44
-34 52 -13 15 40 -61 113 -185 176 -93 48 -93 48 -69 74 28 30 22 33 -122 62
-41 8 -83 62 -108 140 -17 54 -31 77 -69 113 -27 25 -56 62 -66 83 -16 34 -16
39 -2 61 9 12 17 38 19 57 3 30 6 34 33 35 49 2 52 3 58 23 3 14 11 17 32 14
19 -4 25 -10 22 -22 -9 -30 -9 -36 -8 -63 0 -16 7 -28 14 -28 7 0 29 -9 50
-20 40 -22 49 -14 17 15 -23 20 -26 35 -8 35 19 0 58 -50 58 -74 0 -12 7 -32
16 -45 13 -18 14 -25 4 -31 -9 -5 -8 -11 5 -21 10 -8 29 -26 43 -41 15 -16 36
-28 47 -28 27 -1 105 -37 105 -49 0 -5 -8 -11 -17 -13 -13 -2 -4 -11 29 -31
26 -15 51 -27 57 -27 19 0 120 -75 132 -97 7 -13 21 -23 31 -23 14 0 18 -8 19
-37 1 -21 0 -42 -1 -48 -1 -5 -6 -24 -10 -41 -12 -52 0 -136 21 -141 22 -6 33
-33 19 -47 -15 -15 -12 -26 6 -26 8 0 30 -14 47 -32 18 -18 40 -31 50 -30 21
4 23 -26 2 -34 -8 -4 -15 -13 -15 -21 0 -13 3 -13 15 -3 12 10 16 8 24 -14 6
-15 25 -32 46 -40 42 -18 45 -33 8 -38 -36 -4 -39 -26 -8 -62 19 -22 25 -40
25 -76 0 -57 9 -68 31 -39 19 26 39 18 39 -16 0 -31 14 -39 40 -23 16 10 24
10 41 0 27 -17 34 -9 21 25 -27 72 -18 132 14 89 13 -19 34 -14 34 8 0 7 -11
22 -25 34 -25 22 -34 52 -15 52 6 0 33 -11 61 -25 29 -13 56 -22 60 -19 16 9
10 33 -11 44 -20 11 -28 50 -10 50 6 0 19 -9 30 -20 l20 -20 0 25 c0 16 -9 30
-27 41 -16 10 -45 29 -66 42 -31 21 -40 23 -47 12 -4 -7 -6 -19 -3 -27 3 -7
-1 -13 -10 -13 -27 0 -32 41 -8 61 28 23 27 33 -9 91 -32 51 -37 77 -19 95 12
12 66 -14 89 -43 21 -25 38 -15 45 26 4 22 14 49 24 61 15 18 20 19 44 8 22
-10 30 -10 44 4 24 21 62 13 203 -39 13 -5 12 -7 -3 -19 -10 -7 -20 -25 -23
-40 -3 -16 -9 -36 -15 -47 -6 -12 -6 -25 1 -38 13 -23 40 -27 40 -5 0 8 4 15
10 15 14 0 30 -35 30 -69 0 -16 5 -33 10 -36 6 -3 10 -17 10 -30 0 -18 -6 -24
-27 -27 -20 -2 -29 -9 -31 -25 -3 -19 1 -23 23 -23 53 0 89 -42 49 -57 -15 -5
-14 -8 3 -22 10 -9 31 -32 45 -51 26 -36 100 -70 151 -70 18 0 39 -13 64 -41
38 -41 38 -41 98 -36 65 6 85 22 85 68 0 33 17 40 75 32 28 -3 72 1 120 12 81
19 94 16 95 -26 0 -26 29 -89 40 -89 29 0 83 33 121 74 42 44 71 57 84 36 9
-15 72 -12 88 5 8 7 27 17 42 21 25 6 27 5 20 -17 -4 -13 -11 -28 -16 -34 -14
-15 -10 -108 7 -176 20 -77 17 -101 -35 -274 -23 -77 -45 -166 -51 -198 -10
-65 -40 -120 -77 -144 -17 -11 -56 -18 -128 -21 -93 -4 -108 -2 -152 19 -88
43 -180 24 -316 -63 -44 -28 -52 -30 -80 -20 -30 10 -281 72 -357 88 -19 4
-55 6 -79 5 -37 -1 -50 4 -75 27 -24 23 -48 32 -106 42 -97 16 -137 33 -151
64 -12 24 -108 76 -144 76 -24 0 -121 -29 -176 -52 -79 -33 -121 -125 -83
-183 20 -30 14 -49 -33 -102 -38 -42 -52 -47 -123 -44 -14 1 -38 13 -55 27
-39 34 -157 92 -204 100 -20 3 -59 12 -87 20 -59 16 -95 55 -113 120 -10 38
-16 43 -113 91 -124 62 -138 66 -172 54 -67 -26 -277 87 -261 140 6 18 4 20
-11 11 -28 -15 -71 4 -77 35 -5 28 -5 28 97 120 55 50 60 85 21 148 -14 22
-25 45 -25 51 0 6 18 29 40 52 22 22 40 48 40 56 0 19 -8 20 -40 1 -34 -20
-39 -19 -50 9 -5 14 -25 32 -45 42 -33 15 -39 15 -78 1 -60 -22 -143 -38 -164
-31 -10 3 -27 10 -38 14 -44 18 -135 19 -200 1 l-65 -18 -52 25 c-65 32 -184
39 -265 16 -28 -8 -62 -12 -76 -9 -37 10 -162 -12 -208 -35 -21 -11 -64 -26
-96 -34 -52 -13 -117 -37 -181 -68 -17 -9 -34 -8 -75 5 -72 23 -192 47 -231
47 -40 0 -50 11 -66 68 -19 74 -52 65 -115 -33 -18 -27 -59 -78 -91 -113 -56
-60 -65 -65 -161 -97 -117 -39 -203 -96 -233 -156 -11 -20 -38 -58 -60 -84
-55 -63 -70 -96 -70 -150 0 -64 -23 -107 -85 -161 -115 -98 -224 -154 -306
-154 -66 0 -89 -14 -146 -93 -43 -60 -54 -70 -106 -97 -44 -24 -117 -114 -152
-187 -17 -36 -44 -67 -84 -100 -65 -52 -106 -103 -145 -181 -22 -44 -76 -102
-95 -102 -3 0 -19 -29 -35 -65 -31 -71 -30 -100 4 -177 21 -48 16 -98 -14
-156 -13 -25 -15 -46 -10 -95 9 -88 -11 -193 -53 -278 -19 -39 -48 -108 -64
-153 -33 -92 -55 -125 -92 -144 -32 -16 -33 -30 -7 -112 11 -34 20 -77 20 -95
0 -18 7 -45 15 -61 16 -32 10 -48 -9 -21 -20 26 -36 21 -36 -11 0 -31 58 -107
89 -117 29 -9 31 -38 5 -81 -13 -21 -24 -42 -24 -46 0 -10 32 2 54 21 17 15
18 14 11 -39 -7 -59 3 -98 33 -128 10 -10 26 -37 35 -60 9 -23 34 -68 56 -99
54 -81 78 -144 90 -242 16 -120 46 -179 148 -286 178 -186 230 -242 285 -311
51 -66 162 -164 215 -192 17 -9 33 -7 80 9 87 31 177 43 292 40 125 -3 222
-26 322 -77 l74 -37 90 18 c50 10 117 29 150 43 34 14 84 25 116 27 41 2 63 8
79 23 30 28 97 35 277 30 113 -3 158 -9 191 -23 58 -24 134 -118 157 -194 21
-67 50 -117 79 -136 17 -11 38 -11 106 -3 47 5 120 9 162 8 42 -1 86 3 97 9
16 9 25 6 49 -14 16 -14 33 -37 37 -52 10 -41 24 -53 60 -53 31 0 34 -2 46
-52 7 -29 12 -56 11 -60 -5 -18 25 6 40 32 9 17 21 30 27 30 5 0 33 -40 61
-88 52 -91 131 -190 188 -237 17 -15 32 -30 32 -35 0 -9 -161 -180 -170 -180
-3 0 -49 54 -100 120 -52 66 -101 120 -108 120 -10 0 -13 -15 -11 -57 1 -32
-8 -98 -19 -147 -17 -76 -25 -94 -51 -115 -17 -14 -31 -30 -31 -34 0 -5 23
-56 52 -114 45 -93 64 -119 153 -212 56 -58 122 -128 146 -156 25 -27 58 -63
73 -80 34 -38 58 -83 95 -182 16 -43 63 -149 105 -235 42 -86 76 -165 76 -176
0 -10 -9 -27 -20 -37 -11 -10 -20 -27 -20 -39 0 -11 28 -77 61 -145 60 -122
61 -126 57 -190 -6 -77 -18 -102 -71 -138 -54 -37 -101 -123 -122 -218 -9 -44
-27 -111 -40 -150 -20 -60 -22 -84 -19 -170 6 -125 11 -161 27 -177 29 -30
186 -243 229 -311 27 -41 77 -110 113 -153 39 -47 67 -90 69 -109 3 -16 10
-63 16 -104 6 -40 19 -92 29 -115 10 -22 28 -75 41 -116 12 -41 33 -97 47
-125 37 -73 131 -184 184 -217 41 -25 99 -85 99 -102 0 -10 63 -100 133 -191
67 -88 80 -121 52 -131 -23 -9 -17 -46 13 -81 30 -36 160 -112 194 -115 13 -1
59 4 103 10 44 6 118 17 165 24 47 6 165 13 263 14 119 2 195 8 230 17 29 8
79 18 111 22 46 5 92 23 196 76 185 95 289 174 434 330 41 44 92 86 125 104
52 28 59 36 101 119 41 82 45 96 45 163 0 89 -2 87 168 149 202 74 218 86 228
172 4 31 10 74 14 95 8 41 -6 102 -55 228 -41 102 -40 122 7 140 20 8 64 36
97 63 34 26 82 59 107 71 25 13 61 43 80 68 55 72 130 118 296 181 98 37 124
57 213 157 91 103 116 163 96 225 -9 29 -11 92 -6 249 4 116 10 218 14 227 9
19 -31 59 -66 68 -16 4 -28 26 -51 90 -24 70 -30 104 -32 190 -2 83 1 109 13
123 14 16 12 21 -31 65 -47 49 -67 93 -49 115 5 6 19 40 30 74 12 34 38 88 58
119 21 32 60 105 87 163 46 96 60 116 151 207 56 55 140 154 189 220 116 158
280 330 426 448 166 134 308 292 394 438 52 88 127 242 155 318 33 90 118 299
157 387 40 92 55 171 62 341 6 161 -16 179 -112 92 -30 -27 -61 -50 -68 -50
-7 0 -33 -11 -59 -25 -26 -14 -63 -25 -83 -25 -20 0 -53 -9 -75 -20 -22 -11
-57 -20 -79 -20 -30 0 -49 -8 -79 -34 -45 -37 -119 -60 -162 -51 -20 4 -35 0
-56 -18 -46 -38 -90 -57 -134 -57 -55 0 -88 19 -139 79 -30 35 -56 55 -82 63
-22 6 -39 14 -39 17 0 3 16 19 35 34 58 46 43 91 -62 174 -37 30 -101 84 -142
121 -86 78 -82 75 -180 127 -70 37 -76 43 -79 75 -5 47 -18 58 -25 21 -9 -43
-39 -41 -67 4 -12 20 -41 89 -64 154 -59 166 -81 199 -173 264 -43 30 -86 63
-95 74 -23 25 -45 115 -58 236 -11 110 -52 222 -97 269 -15 16 -52 44 -83 64
-41 26 -63 48 -79 80 -24 51 -26 67 -9 94 11 17 8 24 -24 57 -20 21 -52 65
-71 98 -19 33 -60 105 -92 160 -31 55 -70 129 -86 165 -37 81 -108 200 -120
200 -5 0 -9 -17 -9 -37 0 -64 -4 -66 -115 -48 -54 9 -103 19 -108 22 -9 6 0
392 10 418 5 14 46 22 159 32 l77 6 -8 -155 c-8 -177 -5 -188 66 -270 43 -50
75 -61 102 -34 8 8 17 46 20 88 8 82 28 164 35 135 2 -9 -1 -47 -7 -84 -11
-72 -3 -103 28 -103 10 0 30 -15 44 -32 14 -18 33 -42 43 -53 110 -120 227
-286 294 -419 14 -28 37 -56 50 -62 14 -7 38 -18 54 -25 27 -13 101 -112 139
-186 9 -17 22 -64 28 -105 22 -141 81 -244 158 -275 64 -25 138 -104 201 -213
51 -89 117 -176 127 -166 7 7 43 -32 43 -46 0 -6 9 -21 19 -32 11 -12 31 -43
46 -71 22 -42 25 -57 19 -101 -6 -53 7 -107 62 -250 13 -34 31 -93 39 -130 10
-43 24 -76 37 -86 27 -24 99 -23 146 1 20 11 49 25 64 31 15 7 45 30 67 51 29
26 56 41 93 48 51 11 158 60 188 86 8 7 44 26 80 43 41 18 83 48 112 78 31 33
79 65 145 99 120 61 199 109 236 144 24 22 27 31 22 61 -5 30 -1 40 27 72 18
20 58 48 88 63 30 15 66 36 79 46 12 10 39 22 59 25 21 4 50 15 67 24 27 15
30 22 33 71 l3 54 67 35 c63 33 68 38 77 80 13 61 22 72 78 105 41 23 47 31
42 49 -16 49 -17 152 -2 189 17 39 26 43 59 26 27 -15 32 -6 19 33 -10 29 -8
39 18 93 31 61 50 129 51 177 0 20 -8 31 -30 43 -16 8 -51 37 -77 65 -56 59
-74 67 -177 74 -74 6 -83 9 -125 44 -62 52 -85 88 -100 157 -7 32 -21 76 -30
99 l-18 41 -13 -40 c-7 -22 -27 -67 -45 -100 -18 -33 -51 -97 -74 -141 -33
-68 -45 -83 -68 -87 -128 -25 -178 -39 -193 -52 -22 -20 -37 -19 -92 7 -55 26
-61 36 -46 78 17 49 -29 191 -64 198 -20 4 -31 -40 -31 -125 0 -35 -3 -63 -8
-63 -13 0 -39 30 -39 45 0 8 -18 35 -40 60 -22 25 -40 56 -40 67 0 20 1 21 20
3 13 -12 20 -14 20 -6 0 7 -9 24 -20 38 -11 14 -20 32 -20 40 0 7 -28 31 -62
53 -35 21 -75 48 -91 60 -34 27 -102 115 -155 201 -35 57 -40 73 -35 107 4 32
11 42 37 53 21 9 32 22 34 39 6 39 19 46 42 22 23 -24 50 -28 67 -11 6 6 21 8
32 4 29 -9 137 -136 181 -213 39 -67 77 -96 126 -94 20 1 45 -8 66 -23 18 -13
67 -42 108 -63 59 -31 90 -40 145 -45 62 -4 74 -2 112 20 24 14 47 32 53 41 8
14 11 15 19 3 11 -17 31 -6 31 16 0 9 10 27 21 40 21 22 23 22 50 6 18 -11 42
-44 64 -89 20 -40 42 -78 51 -84 17 -15 207 -18 327 -7 52 5 89 4 110 -4 32
-11 82 4 269 81 25 11 70 21 98 24 29 2 55 8 59 13 8 14 135 63 161 63 15 0
25 -11 36 -35 11 -27 22 -37 45 -42 23 -4 35 -15 44 -37 7 -17 24 -41 37 -52
28 -25 90 -37 108 -21 9 9 11 7 8 -8 -4 -24 35 -63 71 -71 14 -4 36 -12 48
-20 19 -12 26 -10 58 11 37 26 65 32 65 15 0 -16 -61 -80 -91 -96 -35 -18 -37
-37 -5 -57 13 -9 58 -48 101 -87 65 -61 81 -71 102 -65 66 16 130 107 119 169
-18 102 -18 106 -3 106 8 0 18 -8 22 -17 36 -91 74 -207 80 -243 8 -48 49
-168 147 -423 57 -150 84 -206 156 -322 75 -122 95 -161 142 -275 27 -68 66
-144 88 -173 51 -67 82 -130 126 -254 42 -123 66 -170 100 -202 24 -22 27 -23
49 -8 30 20 92 187 113 307 8 46 22 92 31 102 17 19 13 72 -13 165 -12 43 -13
69 -5 147 11 91 10 97 -19 191 -17 54 -30 103 -30 110 0 7 -9 41 -21 76 -25
80 -21 134 15 163 13 12 30 41 37 66 7 25 23 57 37 72 21 23 23 32 17 77 -7
51 8 121 26 121 5 0 9 6 9 14 0 7 9 41 19 74 19 58 35 148 50 278 5 45 14 69
33 93 40 47 44 90 19 181 -33 122 -33 122 65 208 32 28 114 148 114 167 0 6
-11 22 -25 35 -35 32 -33 54 3 45 40 -10 59 -31 109 -125 51 -95 89 -150 104
-150 5 0 18 -9 29 -20 11 -11 29 -20 40 -20 13 0 22 -9 26 -27 18 -80 21 -88
38 -87 26 3 71 -100 112 -254 34 -128 53 -183 54 -155 0 6 10 13 22 15 19 2
24 12 31 58 5 30 7 90 5 133 -2 42 -1 77 3 77 8 0 95 -180 103 -213 4 -15 31
-90 60 -165 91 -233 139 -444 170 -752 7 -65 22 -109 58 -170 34 -58 78 -189
78 -232 0 -47 54 -301 79 -377 24 -69 59 -124 74 -114 11 7 7 67 -22 335 -28
261 -37 290 -116 374 -25 27 -45 55 -45 62 0 8 -20 75 -44 151 -43 130 -65
246 -81 426 -4 39 -15 116 -26 173 -10 57 -19 107 -19 113 0 22 21 6 38 -28
12 -26 24 -37 37 -36 33 3 49 -14 75 -77 14 -34 41 -81 61 -103 36 -41 46 -64
72 -162 13 -45 14 -20 10 225 -4 236 -8 294 -29 410 -47 253 -108 426 -206
578 -96 150 -133 230 -167 359 -39 151 -66 349 -52 386 14 36 28 34 36 -5 4
-18 13 -42 19 -53 19 -30 44 -114 51 -170 14 -113 75 -269 75 -190 -1 68 -58
265 -91 310 -14 21 -59 183 -69 255 -30 202 -96 434 -186 653 -39 96 -244 516
-264 542 -4 6 -50 87 -102 180 -126 227 -242 404 -351 534 -34 40 -74 88 -88
105 -25 29 -120 171 -219 326 -25 38 -48 70 -52 70 -18 0 -5 -31 32 -78 22
-27 40 -53 40 -56 0 -18 -137 105 -159 143 -51 87 -101 157 -161 229 -34 40
-60 76 -57 79 3 3 31 -21 62 -53 43 -45 53 -52 41 -29 -24 50 -97 148 -176
238 -98 111 -573 584 -671 667 -41 36 -111 97 -155 135 -735 643 -1532 1129
-2504 1528 -247 102 -602 217 -925 302 -77 20 -151 40 -165 45 -44 16 -100 23
-100 12z m275 -1122 c3 -5 -3 -10 -14 -10 -12 0 -21 5 -21 10 0 6 6 10 14 10
8 0 18 -4 21 -10z m2298 -250 c10 -17 36 -51 58 -76 38 -45 48 -64 30 -64 -16
0 -184 -115 -275 -189 -49 -39 -93 -70 -97 -69 -12 4 -119 157 -119 169 0 15
27 36 199 156 80 56 155 102 166 103 13 0 28 -12 38 -30z m472 -463 c78 -65
181 -178 225 -247 19 -30 37 -57 41 -60 15 -12 59 -107 59 -127 0 -40 -19 -34
-30 9 -7 24 -23 62 -37 86 -33 58 -157 207 -262 316 -92 95 -91 101 4 23z
m-1208 -84 c24 -27 56 -65 71 -87 l26 -38 -34 -31 c-19 -16 -55 -48 -80 -71
-113 -104 -230 -197 -240 -191 -17 11 -141 167 -138 175 3 6 71 68 247 222 42
37 82 67 90 68 8 0 34 -21 58 -47z m-4807 -287 c0 -3 -4 -8 -10 -11 -5 -3 -10
-1 -10 4 0 6 5 11 10 11 6 0 10 -2 10 -4z m-30 -36 c0 -5 -4 -10 -10 -10 -5 0
-10 5 -10 10 0 6 5 10 10 10 6 0 10 -4 10 -10z m-435 -240 c3 -5 -1 -10 -10
-10 -9 0 -13 5 -10 10 3 6 8 10 10 10 2 0 7 -4 10 -10z m4603 -95 c34 -38 62
-77 62 -86 0 -26 -294 -302 -316 -297 -11 3 -144 164 -144 175 0 6 8 14 96 92
27 24 72 65 99 90 81 75 117 102 130 99 6 -2 40 -34 73 -73z m-4578 18 c-1 -5
-21 -18 -45 -30 -34 -17 -45 -19 -45 -9 0 8 17 21 38 29 43 18 52 20 52 10z
m838 -159 c39 -11 24 -24 -28 -24 -27 0 -50 4 -50 9 0 18 38 25 78 15z m3045
-397 c53 -57 107 -127 107 -140 0 -7 -27 -36 -59 -63 -33 -27 -107 -93 -164
-146 -97 -91 -137 -116 -137 -85 0 6 -18 32 -41 57 -22 25 -49 55 -60 66 -27
31 -24 43 23 83 24 20 74 66 113 102 180 169 178 168 218 126z m2461 -436 c14
-22 -9 -40 -67 -54 -199 -49 -187 -41 -187 -123 0 -40 6 -77 16 -95 17 -34 12
-49 -13 -33 -36 23 -53 60 -59 131 l-7 71 30 16 c17 8 71 26 121 39 49 14 100
32 113 41 26 18 45 20 53 7z m-3090 -219 c36 -39 66 -77 66 -83 0 -15 -10 -24
-170 -144 -80 -60 -157 -120 -172 -133 l-26 -24 -28 43 c-16 24 -44 63 -62 86
-19 23 -32 48 -30 56 3 15 116 119 158 146 14 9 59 42 100 74 41 31 80 56 86
55 6 -2 41 -36 78 -76z m-2069 47 c25 -6 45 -16 45 -23 0 -6 -21 -53 -47 -103
-48 -94 -67 -109 -93 -78 -9 11 -24 13 -54 9 -54 -8 -152 -38 -194 -59 -29
-15 -36 -15 -47 -4 -25 28 -105 152 -105 164 0 18 138 83 212 100 69 16 207
13 283 -6z m3833 -275 c6 -2 12 -11 12 -19 0 -13 -7 -15 -32 -10 -65 13 -70
16 -57 31 10 13 32 12 77 -2z m-3287 -146 c157 -198 169 -215 169 -227 0 -13
-156 -131 -174 -131 -7 0 -17 10 -23 23 -13 28 -131 185 -195 258 -26 30 -48
61 -48 69 0 17 140 140 160 140 4 0 54 -60 111 -132z m3312 -22 c52 -72 62
-123 30 -158 -18 -20 -78 -25 -88 -7 -4 6 -13 8 -21 5 -19 -7 -57 11 -72 34
-6 10 -18 48 -27 85 -20 86 -10 109 42 99 35 -7 36 -6 29 17 -23 73 -20 76 20
33 22 -23 60 -71 87 -108z m-746 47 c11 -27 23 -76 27 -110 6 -62 5 -63 -20
-63 -14 0 -45 -5 -70 -11 -52 -13 -71 -50 -38 -74 22 -16 11 -32 -26 -37 -31
-4 -39 -34 -11 -43 27 -8 117 -98 126 -124 6 -20 83 -51 125 -51 28 0 48 -24
54 -63 7 -42 39 -112 57 -123 9 -5 10 2 6 24 -8 41 9 79 40 87 20 5 34 -4 81
-53 31 -33 67 -62 80 -66 29 -9 28 -17 -6 -49 -25 -25 -35 -27 -88 -25 l-59 3
4 -40 c5 -58 16 -72 61 -80 44 -7 58 -21 41 -38 -27 -27 -6 -57 40 -57 22 0
39 -31 80 -148 17 -48 40 -102 51 -120 24 -39 19 -57 -19 -66 -15 -4 -41 -14
-58 -21 -139 -63 -249 -60 -318 9 -16 16 -44 27 -88 35 -67 11 -92 31 -106 80
-3 14 -12 36 -19 49 -9 18 -9 31 -1 55 6 18 12 72 12 120 1 89 8 106 43 107
28 0 9 18 -30 28 -32 8 -63 30 -120 84 -42 40 -111 105 -155 145 -57 53 -83
84 -97 120 -22 55 -81 123 -108 123 -23 0 -24 33 -3 103 17 59 23 70 46 83 9
5 44 43 79 84 35 41 75 84 88 95 13 11 36 30 51 43 23 20 33 23 81 18 30 -3
62 -2 70 4 8 5 29 10 46 10 28 0 34 -5 51 -47z m-1387 -91 c0 -15 -45 -51 -78
-63 -37 -13 -44 -48 -12 -56 25 -7 26 -35 1 -57 -11 -10 -22 -29 -26 -44 -8
-33 -21 -42 -62 -42 -17 0 -34 -4 -38 -9 -3 -6 62 -44 144 -85 82 -41 170 -88
195 -105 24 -17 90 -54 146 -82 106 -54 129 -76 152 -151 10 -33 8 -40 -13
-66 -13 -17 -54 -44 -91 -62 -57 -26 -72 -30 -101 -22 -24 7 -45 6 -73 -4 -50
-18 -136 -18 -177 0 -18 7 -54 16 -81 20 -26 4 -62 16 -80 27 -17 10 -42 19
-56 19 -14 0 -34 7 -44 15 -14 11 -47 15 -117 15 -87 0 -103 -3 -163 -31 -36
-17 -66 -34 -66 -39 0 -14 52 -145 62 -158 17 -20 0 -31 -98 -59 -139 -40
-135 -41 -162 47 -13 41 -26 81 -30 88 -5 9 -32 14 -77 15 -94 3 -146 37 -192
123 l-32 60 25 55 c14 29 36 65 48 79 15 16 26 44 30 75 4 28 12 67 17 88 9
34 13 38 33 33 30 -7 42 8 50 65 6 40 17 56 74 116 46 47 79 72 106 81 49 14
59 7 26 -18 -23 -18 -23 -20 -5 -20 11 0 83 34 160 75 77 41 145 75 151 75 6
0 25 -27 43 -59 17 -32 37 -61 44 -64 7 -3 24 4 38 14 13 10 28 19 33 19 5 0
45 16 90 37 112 50 206 75 206 55z m-2255 -94 c20 -88 79 -181 149 -232 19
-13 19 -16 -25 -110 -24 -52 -49 -96 -55 -96 -20 0 -127 84 -173 136 -24 27
-53 69 -66 94 -25 50 -71 207 -63 215 5 6 135 21 195 24 28 1 32 -3 38 -31z
m1023 -360 c20 -103 20 -114 6 -125 -34 -25 -242 -56 -379 -57 l-80 -1 -3 113
c-2 85 0 113 10 116 7 2 60 9 118 16 58 6 141 19 185 29 131 30 119 38 143
-91z m262 -473 c17 -9 30 -17 30 -20 0 -2 -21 -15 -48 -28 -35 -18 -72 -26
-142 -31 -128 -9 -139 1 -59 53 57 37 69 41 126 41 38 0 76 -6 93 -15z m-670
-347 c0 -10 -7 -18 -15 -18 -8 0 -15 2 -15 4 0 2 -3 11 -6 20 -4 11 0 14 15
13 13 -1 21 -8 21 -19z m-86 -34 c22 -8 20 -21 -4 -29 -23 -7 -90 12 -90 26 0
10 70 12 94 3z m556 -84 c0 -5 -2 -10 -4 -10 -3 0 -8 5 -11 10 -3 6 -1 10 4
10 6 0 11 -4 11 -10z m7797 -332 c-3 -8 -6 -5 -6 6 -1 11 2 17 5 13 3 -3 4
-12 1 -19z m-7251 -1519 c88 -37 134 -64 134 -77 0 -55 -235 -392 -273 -392
-13 0 -167 150 -167 163 0 5 26 37 58 73 31 35 81 106 111 159 36 63 59 95 71
95 10 0 39 -9 66 -21z m-4127 -276 l24 -6 -7 -115 c-4 -64 -10 -120 -13 -125
-8 -13 -413 -1 -426 12 -5 5 -13 50 -18 100 -11 103 -4 127 38 134 46 7 376 7
402 0z m-915 -75 c2 -7 16 -55 31 -107 22 -78 24 -96 13 -106 -11 -11 -338
-117 -404 -132 -23 -5 -24 -3 -79 154 -19 52 -19 53 0 67 23 17 388 133 423
135 7 1 14 -5 16 -11z m1546 -59 c147 -48 268 -102 276 -122 8 -22 -57 -207
-73 -207 -7 0 -44 15 -81 34 -65 32 -225 88 -289 101 -39 8 -46 24 -32 83 29
120 41 152 57 152 9 0 73 -18 142 -41z m2905 -223 c25 -52 45 -103 45 -114 0
-25 -39 -41 -191 -80 -181 -47 -257 -58 -273 -41 -19 21 -50 211 -35 219 6 4
52 13 103 20 86 11 253 58 286 80 8 5 16 10 18 10 1 0 23 -42 47 -94z m-5293
-142 c26 -43 50 -85 54 -91 11 -22 -3 -40 -49 -63 -25 -12 -89 -56 -143 -96
-55 -41 -110 -77 -123 -81 -20 -5 -34 5 -92 68 -38 41 -69 81 -69 90 0 8 10
25 23 36 31 27 150 103 224 142 34 18 72 44 84 57 13 13 28 23 33 21 6 -2 32
-39 58 -83z m4402 57 c3 -4 8 -51 12 -104 8 -111 10 -108 -101 -121 -66 -8
-271 -43 -296 -51 -9 -3 -21 0 -27 7 -14 18 -47 181 -39 201 9 23 63 37 232
57 177 21 212 23 219 11z m-1192 -77 c46 -31 101 -71 123 -88 61 -49 64 -50
90 -26 26 25 52 21 61 -7 3 -10 24 -55 47 -101 l40 -82 -29 -31 c-16 -16 -69
-58 -119 -91 -49 -34 -113 -80 -141 -104 -28 -23 -55 -39 -61 -36 -5 4 -32 34
-59 67 -26 33 -54 66 -61 73 -22 23 -14 49 20 71 18 11 41 29 50 39 17 18 14
22 -73 88 -50 37 -93 78 -96 90 -7 26 94 194 116 194 5 0 47 -25 92 -56z m642
-626 c111 -155 199 -286 208 -308 8 -20 5 -28 -13 -43 -37 -30 -156 -97 -172
-97 -8 0 -52 60 -98 133 -45 72 -96 150 -111 171 -34 47 -36 73 -5 86 12 5 45
31 72 59 28 27 57 50 66 50 8 1 32 -23 53 -51z m-980 -198 c47 -28 88 -55 91
-60 3 -5 -14 -45 -39 -88 -43 -73 -105 -201 -139 -284 l-16 -37 -53 22 c-29
13 -72 29 -96 37 -29 9 -44 20 -48 36 -7 28 70 206 175 402 6 12 18 22 25 22
8 0 53 -23 100 -50z m1430 -722 c21 -57 49 -130 62 -164 29 -75 40 -139 25
-148 -20 -13 -215 -46 -223 -38 -5 5 -24 69 -43 143 -18 74 -41 154 -49 178
-29 79 -27 82 77 117 50 17 97 27 103 22 6 -4 28 -54 48 -110z m-1618 -346 l1
-222 -26 -6 c-14 -3 -42 -9 -62 -14 -20 -6 -59 -10 -87 -10 l-50 0 -6 38 c-9
57 -20 408 -13 427 6 13 24 15 124 13 l118 -3 1 -223z m1668 -417 l58 -7 -6
-49 c-13 -96 -113 -406 -141 -437 -10 -11 -28 -4 -96 39 -109 68 -114 74 -90
113 20 32 55 138 86 261 24 93 29 98 84 91 25 -3 72 -8 105 -11z m-512 -735
c58 -106 60 -124 11 -148 -94 -47 -292 -74 -418 -59 -22 3 -43 6 -47 6 -16 2
-18 44 -3 112 9 41 18 83 20 95 4 19 13 22 102 27 97 6 219 31 238 49 25 23
51 1 97 -82z m-1084 48 c-6 -18 -28 -21 -28 -4 0 9 7 16 16 16 9 0 14 -5 12
-12z m3677 -38 c19 0 28 -8 39 -35 15 -35 30 -38 64 -12 7 5 15 7 18 4 6 -6
-18 -47 -28 -47 -18 0 -49 -46 -44 -66 4 -16 -9 -41 -50 -94 -56 -72 -62 -100
-24 -100 28 0 25 -24 -4 -40 -18 -9 -32 -10 -55 -2 -32 11 -41 6 -55 -32 -6
-18 -9 -17 -39 12 -41 40 -50 40 -77 2 -12 -16 -28 -30 -35 -30 -24 0 -37 73
-24 133 6 28 12 81 13 117 3 104 46 163 124 166 36 2 50 8 64 28 18 24 20 24
53 10 19 -8 46 -14 60 -14z m-3755 -200 c0 -5 -4 -10 -10 -10 -5 0 -10 5 -10
10 0 6 5 10 10 10 6 0 10 -4 10 -10z m3060 -375 c0 -9 9 -34 21 -57 30 -58 69
-258 59 -302 -6 -26 -3 -41 12 -65 11 -17 24 -28 29 -25 5 3 7 10 4 15 -4 5 0
9 8 9 11 0 57 -74 57 -94 0 -3 18 -46 40 -95 22 -49 40 -96 40 -105 0 -26 -36
-19 -48 10 -7 14 -16 23 -21 19 -5 -3 -13 0 -17 6 -4 8 -3 9 5 5 9 -6 10 0 5
20 -11 44 -45 94 -101 146 -62 59 -111 153 -94 180 15 24 14 44 -4 72 -8 12
-15 33 -14 47 3 92 1 170 -4 197 -5 24 -3 32 8 32 8 0 15 -7 15 -15z m747
-837 c14 -15 27 -52 37 -103 8 -44 22 -94 30 -110 20 -37 20 -69 2 -98 -11
-17 -13 -43 -7 -115 3 -51 11 -96 16 -100 6 -4 20 -21 33 -39 35 -51 27 -75
-10 -27 l-20 25 -24 -22 c-18 -17 -24 -19 -28 -8 -2 8 -13 44 -25 80 -12 36
-21 75 -21 88 0 12 -7 33 -17 47 -15 24 -15 28 5 70 30 60 30 173 2 235 -36
81 -20 127 27 77z"/>
<path d="M18230 18628 c0 -30 46 -137 63 -148 10 -6 21 -9 23 -7 5 5 -25 126
-37 150 -11 19 -49 23 -49 5z"/>
<path d="M18372 18520 c0 -14 2 -19 5 -12 2 6 2 18 0 25 -3 6 -5 1 -5 -13z"/>
<path d="M15781 18292 c-41 -20 -74 -40 -73 -44 1 -5 2 -26 2 -48 0 -33 3 -40
19 -40 22 0 163 74 180 94 14 17 -16 76 -39 76 -8 -1 -48 -17 -89 -38z"/>
<path d="M15936 18302 c-8 -14 5 -52 19 -52 19 0 66 40 60 51 -8 11 -72 12
-79 1z"/>
<path d="M13350 22750 c-13 -8 -13 -9 0 -14 25 -8 120 -17 120 -11 0 7 -70 35
-89 35 -9 0 -23 -4 -31 -10z"/>
<path d="M12754 22734 c-18 -15 -17 -15 16 -10 43 8 64 26 29 26 -14 0 -34 -7
-45 -16z"/>
<path d="M16545 22720 c49 -51 98 -79 153 -86 43 -5 52 -4 52 8 0 15 -9 20
-105 54 -27 10 -52 21 -55 24 -8 11 -48 30 -61 30 -7 0 0 -13 16 -30z"/>
<path d="M12460 22699 c-36 -11 -91 -26 -123 -33 -32 -7 -66 -21 -75 -30 -16
-16 -14 -17 30 -12 52 6 64 -2 45 -29 -15 -20 -78 -34 -154 -35 -50 0 -123
-25 -123 -42 0 -8 10 -11 49 -12 18 -1 25 -7 28 -27 2 -17 -2 -29 -12 -32 -10
-5 -14 0 -12 15 2 17 -6 24 -38 34 -62 19 -95 16 -165 -14 -101 -43 -123 -57
-158 -100 -38 -48 -131 -113 -167 -117 -14 -1 -43 -16 -63 -32 -76 -60 -142
-90 -142 -65 0 12 34 42 48 42 7 0 12 6 12 14 0 11 -15 8 -65 -12 -65 -26 -86
-52 -41 -52 44 0 38 -20 -11 -41 -26 -12 -104 -35 -171 -52 -115 -29 -125 -30
-133 -14 -6 9 -19 17 -30 17 -25 0 -99 -42 -98 -55 4 -32 -4 -46 -33 -61 -18
-9 -51 -31 -73 -49 -22 -17 -61 -44 -87 -58 -44 -26 -185 -147 -201 -174 -15
-24 10 -13 74 32 69 49 140 87 149 79 3 -3 -3 -10 -14 -16 -10 -6 -32 -23 -50
-39 -28 -26 -29 -28 -10 -29 12 0 36 5 55 12 36 12 167 93 184 113 32 37 208
126 222 111 12 -12 -116 -96 -168 -109 -10 -3 -19 -10 -19 -17 0 -6 8 -9 18
-6 9 3 44 10 77 16 112 20 173 45 186 77 2 4 38 33 79 63 41 29 89 67 105 82
36 35 102 71 115 63 5 -3 27 3 49 15 22 11 46 17 54 14 8 -3 22 2 30 11 9 9
32 22 50 30 19 8 48 25 63 38 16 13 49 34 73 47 25 12 52 29 60 38 9 9 49 31
88 49 40 18 80 44 89 57 20 32 48 43 39 17 -5 -17 -2 -18 29 -11 37 8 146 75
146 89 0 14 94 101 130 118 19 10 67 31 105 47 39 16 77 35 85 43 22 20 -50
16 -130 -8z m-220 -194 c-7 -9 -15 -13 -19 -10 -3 3 1 10 9 15 21 14 24 12 10
-5z"/>
<path d="M12629 22677 c-30 -17 -87 -45 -127 -61 -63 -25 -75 -35 -96 -73 -14
-23 -20 -43 -15 -43 6 0 40 7 76 17 57 14 73 23 122 73 31 31 69 63 86 71 31
15 47 49 23 49 -8 0 -39 -15 -69 -33z"/>
<path d="M12965 22690 c-3 -6 1 -7 9 -4 18 7 21 14 7 14 -6 0 -13 -4 -16 -10z"/>
<path d="M16845 22665 c33 -16 85 -20 70 -6 -6 5 -30 12 -55 15 l-45 6 30 -15z"/>
<path d="M12115 22614 c-65 -26 -95 -29 -95 -10 0 20 -28 11 -55 -18 -11 -12
-32 -27 -47 -34 -16 -6 -28 -16 -28 -22 0 -5 -9 -10 -20 -10 -13 0 -20 7 -20
20 0 13 7 20 19 20 27 0 51 10 51 22 0 20 -86 -1 -236 -56 -203 -75 -383 -144
-419 -160 -16 -8 -75 -32 -130 -54 -105 -43 -168 -72 -163 -77 2 -2 32 3 68
11 36 7 92 14 124 14 38 0 65 5 76 15 9 8 32 18 51 21 33 7 34 7 17 -13 -21
-23 -23 -43 -5 -43 25 0 147 39 176 56 23 14 37 16 57 9 23 -8 40 -4 103 28
73 37 120 71 110 81 -5 5 -90 -20 -121 -35 -10 -5 -28 -9 -40 -9 -19 0 -20 2
-8 13 8 7 35 22 60 32 25 10 69 29 98 42 29 13 59 23 68 23 8 0 37 11 64 25
27 14 56 25 65 25 15 0 160 44 200 61 11 5 35 10 54 11 19 2 36 9 39 16 5 17
-63 15 -113 -4z"/>
<path d="M12830 22509 c-14 -5 -42 -27 -63 -47 l-38 -37 -19 23 c-21 25 -42
28 -59 8 -9 -11 -9 -15 1 -19 7 -2 9 -8 5 -13 -4 -4 -17 -3 -28 4 -16 10 -25
10 -46 0 -38 -19 -51 -43 -35 -69 9 -15 10 -24 2 -33 -14 -18 -174 -100 -251
-129 -35 -14 -100 -42 -144 -64 -44 -21 -111 -49 -150 -62 -81 -26 -110 -43
-126 -72 -10 -20 -9 -21 15 -15 35 9 34 -12 -1 -24 -16 -6 -40 -17 -55 -25
-36 -20 -38 -19 -38 16 0 45 -20 33 -51 -31 -28 -56 -50 -73 -111 -84 -21 -4
-38 -10 -38 -14 0 -5 -16 -14 -36 -21 -37 -13 -45 -10 -57 24 -5 13 -37 -13
-37 -31 0 -22 -22 -28 -37 -9 -12 18 -16 17 -78 -14 -36 -17 -72 -43 -81 -57
-11 -16 -22 -23 -35 -19 -10 4 -35 -5 -58 -20 -22 -14 -44 -25 -49 -25 -5 0
-21 -14 -37 -30 -16 -17 -52 -45 -80 -63 -27 -17 -57 -38 -65 -46 -8 -8 -39
-30 -70 -49 -54 -35 -95 -71 -250 -227 -83 -83 -99 -118 -59 -128 21 -6 21 -6
2 -30 -22 -29 -49 -104 -40 -114 9 -8 343 161 377 192 8 7 51 25 95 39 44 14
106 43 137 63 111 73 130 83 158 83 16 0 31 4 34 9 5 8 73 0 107 -14 25 -9
209 22 259 44 25 11 88 29 140 42 80 18 102 20 138 10 75 -20 216 -11 372 23
107 24 106 23 86 45 -10 11 -28 22 -42 25 -34 9 -30 23 9 31 34 7 87 50 87 71
0 6 6 17 14 23 12 10 13 5 9 -31 -4 -30 -13 -49 -29 -62 l-25 -18 22 -19 c26
-22 35 -23 77 -8 38 13 92 88 92 127 0 15 9 45 19 67 11 22 23 49 26 59 12 42
13 7 0 -54 -7 -36 -12 -67 -9 -69 6 -6 49 18 73 40 16 15 18 24 10 51 -19 67
-6 77 29 22 14 -21 27 -32 35 -27 6 4 28 6 49 4 28 -2 38 1 38 12 0 9 -6 17
-12 20 -10 4 -10 7 -1 17 10 11 20 11 51 2 22 -7 49 -12 60 -12 18 0 21 4 16
30 -5 25 -3 31 17 38 32 12 55 4 74 -25 12 -18 20 -22 28 -14 8 8 5 17 -11 34
-23 24 -18 42 13 49 15 3 20 11 20 38 0 31 3 35 28 38 16 2 42 -1 59 -7 38
-13 52 -4 69 47 7 20 19 42 28 49 18 14 110 43 135 43 9 0 35 14 58 30 28 21
53 30 79 30 21 0 58 6 81 14 24 8 60 17 82 21 51 9 106 36 106 52 0 16 -3 16
-51 1 -35 -10 -42 -9 -78 17 -22 15 -47 38 -56 52 -16 24 -16 25 7 18 12 -4
33 -13 45 -21 30 -19 47 -18 66 4 23 25 21 37 -5 63 l-23 22 28 -7 c35 -8 28
8 -13 29 -17 9 -40 12 -59 9 -21 -5 -35 -1 -47 11 -18 18 -50 17 -153 -2 -22
-3 -32 -2 -28 4 13 20 -91 53 -221 70 -126 16 -133 16 -186 -2 -51 -17 -63
-18 -128 -6 -113 20 -141 22 -168 10z m-1425 -749 c-3 -5 -12 -10 -18 -10 -7
0 -6 4 3 10 19 12 23 12 15 0z m1000 -140 c-3 -5 -11 -10 -16 -10 -6 0 -7 5
-4 10 3 6 11 10 16 10 6 0 7 -4 4 -10z m-65 -45 c-7 -8 -16 -15 -21 -15 -5 0
-6 7 -3 15 4 8 13 15 21 15 13 0 13 -3 3 -15z m-830 -200 c6 3 10 1 10 -4 0
-13 -56 -15 -64 -2 -9 14 6 21 26 10 10 -5 23 -7 28 -4z"/>
<path d="M15960 22381 c0 -17 103 -52 183 -61 79 -9 134 -3 180 21 11 6 25 5
40 -5 56 -35 115 -23 68 15 -27 22 -128 36 -144 20 -14 -14 -59 -14 -91 0 -20
10 -30 9 -50 -5 -33 -21 -42 -20 -73 4 -26 20 -113 29 -113 11z"/>
<path d="M17050 22296 c0 -9 7 -16 16 -16 9 0 14 5 12 12 -6 18 -28 21 -28 4z"/>
<path d="M11125 22243 c-11 -3 -27 -11 -36 -19 -8 -8 -31 -17 -50 -20 -54 -10
-181 -104 -140 -104 35 0 238 105 251 130 11 20 10 21 -25 13z"/>
<path d="M15380 22144 c0 -36 4 -53 10 -49 13 8 10 105 -2 105 -4 0 -8 -25 -8
-56z"/>
<path d="M15428 22160 c-4 -24 -1 -41 10 -53 8 -9 16 -16 18 -15 1 2 -3 25
-10 53 l-13 49 -5 -34z"/>
<path d="M15530 22146 c0 -25 4 -47 9 -51 6 -3 9 16 9 45 -2 62 -18 67 -18 6z"/>
<path d="M15583 22173 c9 -9 19 -14 23 -11 10 10 -6 28 -24 28 -15 0 -15 -1 1
-17z"/>
<path d="M15484 22148 c11 -54 27 -55 19 0 -3 17 -10 32 -15 32 -6 0 -8 -13
-4 -32z"/>
<path d="M15300 22118 c0 -18 -5 -28 -15 -28 -8 0 -15 4 -15 9 0 13 -36 20
-51 10 -22 -13 -4 -21 52 -23 56 -1 68 9 44 39 -14 19 -14 19 -15 -7z"/>
<path d="M10739 22051 c-13 -11 -22 -22 -19 -25 7 -7 70 24 70 35 0 15 -27 10
-51 -10z"/>
<path d="M14543 22042 c-13 -2 -23 -9 -23 -16 0 -26 139 -73 169 -56 29 15 55
50 45 60 -9 9 -150 18 -191 12z"/>
<path d="M14326 22011 c-9 -10 -19 -34 -23 -54 -4 -30 -2 -37 21 -52 22 -15
26 -24 24 -62 -1 -47 10 -63 48 -63 23 0 79 58 102 107 9 18 20 33 25 33 24 0
47 -24 53 -56 6 -33 8 -35 43 -32 58 5 48 34 -29 87 -64 43 -85 62 -106 97
-15 25 -43 11 -50 -26 -8 -37 -18 -38 -40 -5 -26 39 -48 48 -68 26z m76 -98
c18 -16 24 -44 12 -56 -9 -9 -34 4 -34 18 0 7 -5 15 -11 17 -10 3 -2 38 9 38
3 0 14 -7 24 -17z"/>
<path d="M10778 21993 c-10 -2 -18 -9 -18 -14 0 -14 16 -11 30 6 7 8 11 14 9
14 -2 -1 -12 -3 -21 -6z"/>
<path d="M16028 21931 c-12 -29 -27 -45 -58 -61 -75 -38 -86 -105 -45 -276 14
-58 23 -115 19 -129 -5 -21 -1 -25 43 -38 27 -8 62 -13 77 -10 23 5 27 2 24
-13 -3 -17 5 -20 61 -24 37 -3 74 0 90 6 l26 12 -25 10 c-132 53 -163 76 -184
138 -34 102 -31 247 8 287 57 60 71 108 37 127 -38 20 -57 12 -73 -29z"/>
<path d="M10580 21920 c-39 -33 -233 -135 -338 -176 -69 -28 -140 -70 -272
-159 -41 -28 -86 -56 -100 -62 -194 -89 -277 -135 -412 -226 -86 -59 -162
-107 -169 -107 -7 0 35 37 94 83 147 115 191 145 308 214 64 37 228 164 229
177 0 5 -6 4 -12 -1 -7 -5 -31 -20 -53 -34 -123 -79 -328 -218 -379 -258 -32
-25 -80 -62 -106 -81 -26 -19 -106 -82 -176 -139 -71 -57 -174 -140 -229 -185
-182 -147 -382 -330 -610 -561 -176 -178 -197 -200 -305 -325 -36 -41 -67 -77
-70 -80 -36 -36 -121 -142 -117 -146 3 -3 38 24 78 61 54 50 77 65 93 61 27
-7 30 -4 95 72 76 89 100 103 200 118 90 13 111 8 111 -26 0 -22 -26 -33 -48
-21 -11 6 -30 0 -63 -21 -46 -28 -104 -86 -96 -95 3 -2 24 3 48 11 52 19 83
20 111 5 16 -9 24 -7 42 10 16 15 33 21 56 19 29 -3 37 2 56 32 13 19 30 42
39 51 18 19 19 30 3 24 -13 -4 -58 56 -58 76 0 5 36 45 79 87 43 42 82 87 85
99 5 16 18 23 48 28 30 5 51 19 84 53 24 25 44 54 44 64 0 24 -41 33 -92 20
-23 -6 -44 -9 -46 -7 -6 6 104 55 124 55 10 0 43 11 71 25 35 16 55 20 59 13
4 -6 7 -45 8 -86 2 -86 7 -92 69 -69 68 26 110 30 132 14 18 -14 17 -16 -29
-43 -27 -16 -70 -43 -95 -61 -25 -17 -79 -49 -120 -70 -40 -21 -92 -54 -115
-74 -22 -20 -54 -40 -71 -46 -36 -11 -43 -39 -21 -82 9 -16 16 -48 16 -71 0
-33 3 -40 20 -40 29 0 24 -18 -9 -38 -28 -15 -41 -38 -41 -69 0 -33 19 -16
189 173 50 56 91 109 91 117 0 8 -7 20 -15 27 -8 7 -15 17 -15 22 0 20 82 103
128 129 26 15 63 43 82 63 19 21 55 51 80 68 107 74 180 141 209 192 16 29 48
69 70 88 23 19 46 50 53 69 23 70 132 200 192 231 23 11 43 24 46 27 14 19
184 164 250 213 98 73 156 124 149 132 -3 4 -42 -14 -86 -39 -119 -68 -178
-64 -111 6 30 31 143 105 230 150 20 10 67 46 105 78 37 33 96 77 130 97 68
40 95 64 72 64 -8 1 2 14 21 30 19 17 29 30 22 30 -8 0 -10 8 -6 25 8 31 7 31
-36 -5z m-1050 -1099 c0 -4 -25 -9 -55 -9 -30 0 -55 4 -55 9 0 5 25 9 55 9 30
0 55 -4 55 -9z m-1001 -652 l33 -31 -34 -29 c-18 -15 -38 -28 -43 -29 -9 0 -9
79 0 108 6 17 8 16 44 -19z"/>
<path d="M11668 21925 c-20 -14 -42 -25 -47 -25 -6 0 -11 -9 -11 -20 0 -19 1
-19 46 -2 51 18 75 45 58 62 -6 6 -22 2 -46 -15z"/>
<path d="M13075 21420 c3 -5 10 -10 16 -10 5 0 9 5 9 10 0 6 -7 10 -16 10 -8
0 -12 -4 -9 -10z"/>
<path d="M15970 21195 c0 -32 34 -51 66 -36 13 6 24 15 24 20 0 15 -42 41 -67
41 -18 0 -23 -6 -23 -25z"/>
<path d="M12015 21151 c-6 -5 -27 -14 -47 -21 -42 -13 -55 -45 -14 -34 13 3
27 1 30 -5 11 -17 -11 -48 -37 -55 -16 -4 -27 -16 -33 -38 -7 -24 -17 -34 -42
-40 l-33 -9 61 -61 60 -61 111 16 c216 33 319 68 327 111 2 10 1 47 -3 82 l-6
62 -34 -14 c-41 -17 -150 -19 -140 -3 5 7 -5 8 -29 4 -26 -5 -36 -4 -36 5 0 9
-5 8 -18 -3 -10 -9 -33 -20 -50 -23 -32 -7 -32 -6 -22 22 6 16 16 34 22 42 9
10 8 16 -3 23 -18 11 -52 12 -64 0z"/>
<path d="M11880 21045 c-17 -21 -8 -28 15 -11 11 8 14 15 8 19 -6 4 -16 0 -23
-8z"/>
<path d="M8904 20532 c-47 -70 -47 -72 -27 -72 13 0 28 18 46 55 29 60 31 65
20 65 -5 0 -22 -22 -39 -48z"/>
<path d="M12510 20530 c0 -5 5 -10 10 -10 6 0 10 5 10 10 0 6 -4 10 -10 10 -5
0 -10 -4 -10 -10z"/>
<path d="M12772 20300 c0 -14 2 -19 5 -12 2 6 2 18 0 25 -3 6 -5 1 -5 -13z"/>
<path d="M14335 20150 c-3 -5 -1 -10 4 -10 6 0 11 5 11 10 0 6 -2 10 -4 10 -3
0 -8 -4 -11 -10z"/>
<path d="M12261 20115 c-39 -44 -40 -60 -2 -41 44 23 72 76 40 76 -4 0 -21
-16 -38 -35z"/>
<path d="M12365 20080 c-59 -55 -69 -60 -112 -62 -37 -1 -40 -2 -15 -5 17 -2
32 -9 32 -14 0 -11 -41 -72 -52 -77 -11 -5 -10 -32 1 -32 5 0 13 10 16 21 6
19 8 20 23 5 15 -14 14 -18 -11 -44 -35 -37 -34 -50 3 -44 17 2 30 2 30 -2 0
-7 -22 -34 -62 -77 -16 -16 -28 -32 -28 -37 0 -16 61 -31 87 -21 34 13 37 8
16 -30 -17 -29 -17 -33 -2 -59 15 -27 15 -29 -15 -65 -32 -39 -55 -45 -113
-32 -25 6 -33 3 -42 -13 -8 -15 -7 -23 3 -31 8 -7 12 -20 9 -31 -7 -26 -66
-70 -95 -70 -13 0 -29 -4 -37 -9 -20 -13 -5 -41 22 -41 13 0 34 -9 47 -20 14
-13 37 -20 62 -20 64 0 42 -17 -31 -24 -55 -6 -78 -13 -111 -37 -23 -17 -62
-39 -86 -49 -24 -11 -44 -22 -44 -26 0 -4 28 -4 62 -1 34 3 70 1 80 -4 12 -6
29 -4 55 9 35 17 51 18 202 9 122 -7 177 -6 217 2 30 7 54 15 54 19 0 3 -12
18 -26 33 l-26 27 33 17 c74 38 118 99 99 136 -8 15 -21 19 -60 19 -37 0 -50
4 -50 15 0 7 7 18 16 23 12 7 14 15 8 33 -4 13 -7 46 -5 72 2 35 -2 54 -14 67
-13 14 -17 35 -16 77 2 74 -12 106 -52 121 l-32 13 35 27 c19 15 60 50 90 79
52 49 54 53 38 69 -11 11 -34 18 -67 18 -45 1 -71 10 -60 20 2 2 31 21 63 41
57 37 59 38 36 47 -14 5 -33 7 -43 4 -11 -2 -30 -1 -43 5 -22 8 -32 2 -89 -51z"/>
<path d="M14520 19952 c-28 -23 -19 -42 18 -42 36 0 55 13 50 36 -5 26 -40 29
-68 6z"/>
<path d="M14208 19868 c-22 -17 -37 -93 -18 -86 20 6 54 78 43 89 -6 6 -15 4
-25 -3z"/>
<path d="M13357 19811 c-4 -16 -1 -18 16 -12 28 10 34 31 9 31 -11 0 -22 -8
-25 -19z"/>
<path d="M11944 19771 c-17 -10 -36 -33 -42 -50 -10 -28 -15 -31 -51 -31 -27
0 -43 5 -50 17 -8 14 -12 15 -25 4 -9 -7 -16 -19 -16 -25 0 -7 -11 -23 -25
-36 -30 -28 -32 -50 -5 -57 11 -3 20 -9 20 -13 0 -10 -64 -67 -122 -109 -54
-39 -57 -50 -26 -86 26 -30 35 -30 113 -6 33 10 92 22 130 26 93 10 128 43
170 164 8 25 25 43 56 62 41 24 44 28 44 69 0 38 -4 46 -30 61 -49 29 -105 33
-141 10z"/>
<path d="M12170 19779 c0 -5 5 -7 10 -4 6 3 10 8 10 11 0 2 -4 4 -10 4 -5 0
-10 -5 -10 -11z"/>
<path d="M13440 19618 c0 -48 39 -64 63 -27 16 26 1 49 -33 49 -25 0 -30 -4
-30 -22z"/>
<path d="M12962 17948 c-43 -30 -43 -30 -40 -86 l3 -57 35 0 35 0 18 73 c17
70 17 103 0 101 -4 0 -27 -14 -51 -31z"/>
<path d="M12890 17720 l-55 -17 3 -74 c2 -47 -2 -92 -12 -124 -15 -46 -14 -51
1 -62 21 -16 25 -16 59 2 16 8 37 15 46 15 9 0 19 4 23 9 15 25 45 206 39 237
-7 40 -19 42 -104 14z"/>
<path d="M12187 17612 c-9 -10 -17 -23 -17 -29 0 -19 29 -35 50 -28 17 5 20
13 18 38 -4 38 -27 46 -51 19z"/>
<path d="M14813 17513 c-13 -2 -23 -9 -23 -14 0 -14 26 -11 40 6 7 8 11 14 9
14 -2 -1 -14 -4 -26 -6z"/>
<path d="M14914 17389 c-9 -15 12 -33 30 -26 9 4 16 13 16 22 0 17 -35 21 -46
4z"/>
<path d="M14890 17276 c0 -24 17 -28 23 -6 3 13 0 20 -9 20 -8 0 -14 -6 -14
-14z"/>
<path d="M14240 17265 c0 -8 6 -15 14 -15 22 0 28 17 10 24 -22 9 -24 8 -24
-9z"/>
<path d="M15158 16973 c-25 -30 -30 -43 -16 -43 7 0 19 12 25 27 15 32 11 39
-9 16z"/>
<path d="M15880 16868 c-25 -12 -49 -20 -54 -19 -5 1 -6 -8 -2 -21 3 -13 6
-31 6 -40 0 -30 36 -21 69 17 17 20 31 40 31 45 0 4 3 15 6 24 8 21 -2 20 -56
-6z"/>
<path d="M14612 16838 c3 -32 4 -33 53 -33 34 0 61 -7 86 -23 46 -28 64 -28
114 2 48 30 44 32 -88 46 -54 6 -111 17 -127 25 -40 21 -42 20 -38 -17z"/>
<path d="M6212 16825 c0 -16 2 -22 5 -12 2 9 2 23 0 30 -3 6 -5 -1 -5 -18z"/>
<path d="M9904 16375 c-20 -15 -11 -18 20 -6 11 4 15 10 9 14 -5 3 -19 0 -29
-8z"/>
<path d="M9575 16362 c-16 -9 -32 -18 -34 -20 -6 -3 32 -31 42 -32 5 0 11 9
14 20 3 11 9 20 14 20 5 0 9 7 9 15 0 19 -8 19 -45 -3z"/>
<path d="M9845 16310 c-18 -34 -19 -50 -4 -50 8 0 39 58 39 75 0 16 -22 1 -35
-25z"/>
<path d="M9646 16274 c-3 -9 -3 -20 0 -25 9 -16 27 -5 31 19 3 26 -22 31 -31
6z"/>
<path d="M5911 15597 c-12 -32 -58 -403 -82 -662 -26 -282 -36 -860 -20 -1185
18 -381 58 -765 110 -1065 46 -264 77 -409 132 -635 198 -801 503 -1563 907
-2265 101 -176 145 -249 239 -397 13 -21 27 -38 33 -38 11 0 -22 73 -121 265
-43 83 -83 168 -89 190 -14 49 -2 86 35 111 25 16 27 16 53 -3 15 -11 37 -23
49 -27 19 -6 24 -2 29 20 4 15 2 48 -4 73 -7 25 -14 71 -18 101 -6 58 -40 245
-80 445 -13 66 -44 191 -69 279 -52 185 -56 228 -20 276 20 27 25 46 25 92 0
49 7 72 49 155 81 163 84 250 17 520 -42 172 -48 188 -83 210 -62 39 -121 117
-168 223 -84 187 -143 268 -268 363 -21 15 -46 45 -56 66 -11 20 -27 44 -36
51 -15 12 -19 12 -30 -3 -14 -20 -35 -22 -36 -4 -8 140 -11 153 -39 206 -16
31 -53 102 -81 159 -28 56 -58 102 -65 102 -13 0 -21 -19 -30 -66 -7 -41 -24
-68 -35 -57 -6 6 -1 38 15 86 28 85 26 110 -11 179 -25 46 -27 47 -45 32 -10
-10 -18 -26 -18 -36 0 -29 -30 -82 -41 -71 -5 5 -1 24 11 48 18 34 18 41 5 55
-20 22 -19 43 4 64 40 36 57 179 34 281 -6 28 -14 131 -18 230 -10 257 -56
477 -127 603 -26 46 -32 69 -39 160 -12 163 -10 498 5 682 12 148 9 210 -9
210 -3 0 -9 -10 -14 -23z m209 -2422 c0 -8 -4 -15 -10 -15 -5 0 -10 7 -10 15
0 8 5 15 10 15 6 0 10 -7 10 -15z"/>
<path d="M8346 14575 c-3 -8 -1 -15 4 -15 6 0 10 7 10 15 0 8 -2 15 -4 15 -2
0 -6 -7 -10 -15z"/>
<path d="M23114 14136 c-7 -30 -8 -30 -34 -13 -17 10 -22 9 -31 -3 -18 -28 -2
-84 51 -173 28 -49 59 -110 68 -135 8 -26 23 -58 33 -72 10 -14 25 -63 34
-110 9 -47 22 -105 30 -130 7 -25 28 -137 45 -250 18 -113 43 -243 56 -289 14
-46 27 -105 30 -130 8 -72 14 -91 25 -91 8 0 10 43 8 138 -2 75 1 207 5 292 7
127 6 176 -9 274 -9 66 -18 156 -20 200 -3 96 -27 160 -85 222 -21 23 -48 61
-61 85 -12 24 -31 56 -42 70 -11 15 -28 51 -37 81 -13 38 -24 54 -39 56 -15 2
-22 -4 -27 -22z"/>
<path d="M21940 14119 c-1 -2 -2 -83 -2 -179 -1 -137 2 -190 16 -245 19 -75
55 -157 71 -162 15 -5 74 88 91 143 19 61 13 109 -24 200 -38 95 -149 270
-152 243z"/>
<path d="M23100 13746 c0 -9 5 -16 10 -16 6 0 10 4 10 9 0 6 -4 13 -10 16 -5
3 -10 -1 -10 -9z"/>
<path d="M18930 13691 c-14 -28 11 -40 62 -31 78 15 76 50 -2 50 -39 0 -52 -4
-60 -19z"/>
<path d="M23170 13583 c1 -10 7 -29 15 -43 l14 -25 1 27 c0 32 -9 58 -21 58
-5 0 -9 -8 -9 -17z"/>
<path d="M23454 13458 c6 -47 12 -65 16 -53 8 22 4 101 -5 116 -16 25 -20 2
-11 -63z"/>
<path d="M23251 13254 c0 -11 3 -14 6 -6 3 7 2 16 -1 19 -3 4 -6 -2 -5 -13z"/>
<path d="M12314 12065 c-9 -14 -13 -32 -10 -42 9 -21 23 -7 35 35 12 39 -2 42
-25 7z"/>
<path d="M17047 10793 c-5 -26 -2 -42 7 -32 9 11 15 59 7 59 -5 0 -11 -12 -14
-27z"/>
<path d="M16974 10665 c-3 -8 4 -28 16 -45 30 -42 47 -25 23 23 -19 39 -30 45
-39 22z"/>
<path d="M18341 9944 c-22 -18 -31 -35 -31 -56 0 -57 -65 -138 -110 -138 -21
0 -28 -7 -37 -37 -30 -102 -47 -133 -73 -133 -11 0 -29 -14 -42 -30 -12 -17
-40 -41 -63 -54 -22 -13 -49 -33 -59 -45 -11 -12 -31 -21 -45 -21 -14 0 -41
-9 -59 -20 -18 -11 -40 -20 -50 -20 -9 0 -39 -9 -67 -21 -42 -17 -54 -29 -73
-67 -12 -26 -33 -65 -47 -87 -30 -49 -33 -124 -9 -220 9 -36 14 -75 10 -89 -7
-29 -93 -158 -136 -204 -41 -45 -73 -110 -72 -147 1 -17 8 -50 16 -73 12 -32
13 -54 7 -83 -11 -47 1 -105 26 -130 27 -27 121 -49 169 -39 102 20 210 76
256 134 18 22 68 111 111 196 43 85 82 159 86 165 32 39 225 439 247 509 15
48 38 104 53 124 22 33 25 45 23 110 -3 74 10 95 28 48 14 -38 27 -39 49 -2
20 31 21 45 17 143 -6 131 -20 206 -45 241 -10 15 -22 37 -25 50 -9 28 -18 28
-55 -4z"/>
<path d="M19260 9105 c-6 -8 -8 -20 -4 -26 5 -9 11 -7 21 6 23 33 9 51 -17 20z"/>
<path d="M18992 8968 c-14 -14 -16 -54 -3 -63 12 -7 31 26 31 54 0 24 -10 27
-28 9z"/>
<path d="M8720 8717 c-81 -29 -94 -36 -202 -108 -105 -71 -185 -170 -240 -299
-40 -93 -53 -146 -64 -261 -8 -96 23 -292 73 -458 46 -155 190 -430 304 -581
14 -19 52 -71 85 -115 65 -89 154 -197 217 -264 38 -41 42 -43 52 -25 5 10 51
62 101 114 50 52 105 116 122 143 18 26 47 68 65 93 17 25 39 57 47 70 8 12
37 55 64 95 182 267 308 666 293 932 -10 189 -48 290 -167 441 -62 79 -145
141 -256 189 -104 45 -169 57 -313 57 -95 0 -128 -5 -181 -23z m349 -368 c66
-29 106 -63 144 -122 52 -80 62 -114 62 -207 0 -74 -4 -92 -29 -140 -82 -159
-203 -224 -370 -201 -123 18 -211 82 -266 195 -42 88 -49 174 -20 263 12 37
32 84 44 103 27 41 131 109 196 127 59 17 182 8 239 -18z"/>
<path d="M18777 6524 c-4 -4 -7 -11 -7 -16 0 -13 50 -6 53 7 2 12 -36 19 -46
9z"/>
</g>
</svg>
